<svg xmlns="http://www.w3.org/2000/svg" width="180" height="180" fill="none"><g clip-path="url(#a)"><rect width="180" height="180" fill="#4A1EF8" rx="18"/><path fill="#fff" d="M0 0h180v180H0z"/><path fill="url(#b)" d="M0 0h180v180H0z"/><g stroke="#4A1EF8" stroke-linecap="square" stroke-linejoin="bevel" stroke-width="4.966" clip-path="url(#c)"><path d="M50.69 103.892H38.865a5.91 5.91 0 0 1-5.91-5.912V38.867a5.911 5.911 0 0 1 5.91-5.912h65.025a5.91 5.91 0 0 1 5.911 5.912v14.778M32.955 50.69h76.847"/></g><path stroke="#4A1EF8" stroke-linecap="round" stroke-linejoin="round" stroke-width="5" d="M98.117 133.13c19.337 0 35.013-15.676 35.013-35.013 0-19.338-15.676-35.014-35.013-35.014-19.338 0-35.014 15.676-35.014 35.014 0 19.337 15.676 35.013 35.014 35.013Z"/><path stroke="#4A1EF8" stroke-linecap="square" stroke-linejoin="bevel" stroke-width="5" d="m145.862 145.862-22.281-22.281"/></g><defs><clipPath id="a"><rect width="180" height="180" fill="#fff" rx="18"/></clipPath><clipPath id="c"><path fill="#fff" d="M30 30h82.759v82.759H30z"/></clipPath><linearGradient id="b" x1="0" x2="313.291" y1="0" y2="31.661" gradientUnits="userSpaceOnUse"><stop stop-color="#1EDEF8" stop-opacity=".15"/><stop offset="1" stop-color="#4A1EF8" stop-opacity=".7"/></linearGradient></defs></svg>
